<?xml version="1.0"?>
<svg xmlns="http://www.w3.org/2000/svg" xmlns:xlink="http://www.w3.org/1999/xlink" xmlns:svgjs="http://svgjs.com/svgjs" version="1.1" width="512" height="512" x="0" y="0" viewBox="0 0 24 24" style="enable-background:new 0 0 512 512" xml:space="preserve"><g><g xmlns="http://www.w3.org/2000/svg"><path d="m12 24c-6.617 0-12-5.383-12-12s5.383-12 12-12 12 5.383 12 12c0 2.105-.556 4.177-1.607 5.991-.139.238-.445.32-.684.182-.239-.139-.32-.444-.182-.684.964-1.661 1.473-3.56 1.473-5.489 0-6.065-4.935-11-11-11s-11 4.935-11 11 4.935 11 11 11c2.324 0 4.54-.714 6.407-2.065.222-.162.536-.112.698.112s.111.536-.112.698c-2.039 1.475-4.457 2.255-6.993 2.255z" fill="#ffffff" data-original="#000000" style=""/></g><g xmlns="http://www.w3.org/2000/svg"><path d="m12 21c-3.969 0-7.428-2.553-8.607-6.352-.082-.264.065-.544.329-.626.269-.08.544.066.626.329 1.048 3.379 4.123 5.649 7.652 5.649s6.604-2.27 7.652-5.648c.082-.263.358-.409.626-.329.264.082.411.362.329.626-1.179 3.798-4.638 6.351-8.607 6.351z" fill="#ffffff" data-original="#000000" style=""/></g><g xmlns="http://www.w3.org/2000/svg"><path d="m19.895 22.145c-.804 0-1.557-.313-2.121-.883l-1.678-1.678c-.195-.195-.195-.512 0-.707s.512-.195.707 0l1.68 1.68c.753.76 2.072.758 2.821.002.382-.378.59-.879.59-1.414s-.208-1.035-.586-1.41l-1.903-1.913c-.195-.196-.194-.512.002-.707.195-.196.512-.194.707.002l1.9 1.91c.567.561.88 1.314.88 2.118s-.313 1.557-.883 2.121c-.559.566-1.312.879-2.116.879z" fill="#ffffff" data-original="#000000" style=""/></g><g xmlns="http://www.w3.org/2000/svg"><path d="m19.91 19.66c-.128 0-.256-.049-.354-.146l-1.54-1.54c-.195-.195-.195-.512 0-.707s.512-.195.707 0l1.54 1.54c.195.195.195.512 0 .707-.097.097-.225.146-.353.146z" fill="#ffffff" data-original="#000000" style=""/></g><g xmlns="http://www.w3.org/2000/svg"><path d="m9.5 10c-.276 0-.5-.224-.5-.5 0-.827-.673-1.5-1.5-1.5s-1.5.673-1.5 1.5c0 .276-.224.5-.5.5s-.5-.224-.5-.5c0-1.378 1.122-2.5 2.5-2.5s2.5 1.122 2.5 2.5c0 .276-.224.5-.5.5z" fill="#ffffff" data-original="#000000" style=""/></g><g xmlns="http://www.w3.org/2000/svg"><path d="m18.5 10c-.276 0-.5-.224-.5-.5 0-.827-.673-1.5-1.5-1.5s-1.5.673-1.5 1.5c0 .276-.224.5-.5.5s-.5-.224-.5-.5c0-1.378 1.122-2.5 2.5-2.5s2.5 1.122 2.5 2.5c0 .276-.224.5-.5.5z" fill="#ffffff" data-original="#000000" style=""/></g></g></svg>
